<svg viewBox="0 0 231 231" xmlns="http://www.w3.org/2000/svg"><path d="m33.83 33.83a115.5 115.5 0 1 1 0 163.34 115.49 115.49 0 0 1 0-163.34z" fill="#ff9700"/><path d="m115.5 51.75a63.75 63.75 0 0 0 -10.5 126.63v14.09a115.5 115.5 0 0 0 -53.729 19.027 115.5 115.5 0 0 0 128.46 0 115.5 115.5 0 0 0 -53.729-19.029v-14.084a63.75 63.75 0 0 0 53.25-62.881 63.75 63.75 0 0 0 -63.65-63.75 63.75 63.75 0 0 0 -.09961 0z" fill="#ffce8b"/><path d="m141.75 195a114.79 114.79 0 0 1 38 16.5 115.53 115.53 0 0 1 -128.46 0 114.79 114.79 0 0 1 38-16.5l13.85 13.85v-1.2h17.86v3.1h5z" fill="#033c58"/><path d="m115.36 207.65 8.01 16.55 24.93-27.34-5.22-6.91z" fill="#fff"/><path d="m115.36 207.65-8.01 16.55-24.93-27.34 5.21-6.91z" fill="#fff"/><path d="m137.38 11.148c-12.23 1.9593-18.511 14.606-43.436 9.4915-11.285-3.2054-16.406-3.573-20.389.58594-4.1548 4.3384-7.033 12.435-9.8184 21.706-2.1354 7.4136-3.7187 14.381-4.7461 21.646h112.7c-3.4878-24.293-10.822-43.281-25.182-51.061-3.5314-1.623-6.5274-2.2959-9.1289-2.3613z" fill="#27363c"/><path d="m114.37 43.383c-19.445.088-38.524 2.0724-52.379 5.6992-1.2766 4.5795-2.4317 10.169-3.2285 16.807h113.11c-.83731-6.0107-1.9164-11.674-3.3184-16.924-15.229-3.8842-34.873-5.6693-54.18-5.582z" fill="#5dcad4"/><path d="m115.5 55.773c-58.39 0-105.73 15.476-105.73 34.57h.0312c0 11.295 16.496 21.319 42.126 27.627-.10331-7.7704 2.788-21.904 5.2734-31.031 6.0935-1.7168 6.9294-1.8971 13.167-2.9919 14.874-2.8256 29.99-4.2037 45.133-4.1153 15.143-.0884 30.259 1.2897 45.133 4.1153 6.2372 1.0947 7.2065 1.2751 13.3 2.9919 2.4854 9.1267 5.3768 23.26 5.2734 31.031 25.63-6.3082 41.993-16.332 41.993-27.627h.0312c0-19.093-47.34-34.57-105.73-34.57z" fill="#314652"/><path d="m72.088 83.533c-6.9765 1.1147-13.357 2.856-18.439 4.3477-1.1861 7.415-2.0038 18.858-1.8926 26.293 4.3278-.62795 10.155-1.3644 13.295-1.6465-.40554.30198 2.7344-17.827 7.0371-28.994zm86.824 0c4.3028 11.167 7.4426 29.296 7.0371 28.994 3.1396.28213 8.9671 1.0185 13.295 1.6465.11119-7.4351-.70652-18.878-1.8926-26.293-5.0822-1.4916-11.463-3.2329-18.439-4.3477z" fill="#333"/><g fill="none" stroke="#000" stroke-linecap="round" stroke-linejoin="round"><path d="m131.64 114.09 7.5801-7.5801 7.5801 7.5801m-62.6 0 7.5801-7.5801 7.5799 7.5801" stroke-width="6.4998"/><path d="m122.83 151.88a10.49 10.489 0 0 1 -14.66 0" stroke-width="6.1996"/></g></svg>