<svg fill="none" height="64" viewBox="0 0 331 64" width="331" xmlns="http://www.w3.org/2000/svg" xmlns:xlink="http://www.w3.org/1999/xlink"><filter id="a" color-interpolation-filters="sRGB" filterUnits="userSpaceOnUse" height="85" width="79" x="-7" y="1"><feFlood flood-opacity="0" result="BackgroundImageFix"/><feColorMatrix in="SourceAlpha" result="hardAlpha" type="matrix" values="0 0 0 0 0 0 0 0 0 0 0 0 0 0 0 0 0 0 127 0"/><feOffset dy="-3"/><feGaussianBlur stdDeviation="1.5"/><feComposite in2="hardAlpha" operator="out"/><feColorMatrix type="matrix" values="0 0 0 0 1 0 0 0 0 1 0 0 0 0 1 0 0 0 0.1 0"/><feBlend in2="BackgroundImageFix" mode="normal" result="effect1_dropShadow_720_60"/><feColorMatrix in="SourceAlpha" result="hardAlpha" type="matrix" values="0 0 0 0 0 0 0 0 0 0 0 0 0 0 0 0 0 0 127 0"/><feOffset dy="4"/><feGaussianBlur stdDeviation="2"/><feComposite in2="hardAlpha" operator="out"/><feColorMatrix type="matrix" values="0 0 0 0 0 0 0 0 0 0 0 0 0 0 0 0 0 0 0.25 0"/><feBlend in2="effect1_dropShadow_720_60" mode="normal" result="effect2_dropShadow_720_60"/><feBlend in="SourceGraphic" in2="effect2_dropShadow_720_60" mode="normal" result="shape"/></filter><linearGradient id="b"><stop offset="0" stop-color="#1d4ed8"/><stop offset="1" stop-color="#1e40af"/></linearGradient><linearGradient id="c" gradientUnits="userSpaceOnUse" x1="53.5" x2="6.43755" xlink:href="#b" y1="-2.06452" y2="63.9555"/><linearGradient id="d" gradientUnits="userSpaceOnUse" x1="53.5" x2="6.43755" y1="-2.06452" y2="63.9555"><stop offset="0" stop-color="#1dd8cd"/><stop offset="1" stop-color="#1e41b4"/></linearGradient><linearGradient id="e" gradientUnits="userSpaceOnUse" x1="56.3516" x2="4.14166" xlink:href="#b" y1="4.70967" y2="77.9506"/><mask id="f" height="64" maskUnits="userSpaceOnUse" width="64" x="0" y="0"><path clip-rule="evenodd" d="m39.6361 1.45881 22.8775 23.13399c1.0755 1.0876 1.6133 2.622 1.461 4.1689l-3.0164 30.6453c-.2567 2.6085-2.3826 4.593-4.9204 4.593h-51.09198c-2.7315 0-4.94582-2.2878-4.94582-5.11 0-.9261.24362-1.8349.704814-2.6291l31.230886-53.77921c1.4053-2.4199862 4.4433-3.204702 6.7856-1.752708.3315.2055.6385.450448.9148.729828z" fill="url(#c)" fill-rule="evenodd"/></mask><g mask="url(#f)"><path clip-rule="evenodd" d="m39.6361 1.45881 22.8775 23.13399c1.0755 1.0876 1.6133 2.622 1.461 4.1689l-3.0164 30.6453c-.2567 2.6085-2.3826 4.593-4.9204 4.593h-51.09198c-2.7315 0-4.94582-2.2878-4.94582-5.11 0-.9261.24362-1.8349.704814-2.6291l31.230886-53.77921c1.4053-2.4199863 4.4433-3.204702 6.7856-1.752708.3315.2055.6385.450448.9148.729828z" fill="url(#d)" fill-rule="evenodd"/><g filter="url(#a)"><path clip-rule="evenodd" d="m40.9713 8.61837 25.3797 25.66423c1.1932 1.2066 1.7897 2.9088 1.6208 4.6249l-3.3462 33.9971c-.2849 2.8939-2.6433 5.0954-5.4587 5.0954h-56.68014c-3.030251 0-5.48676-2.538-5.48676-5.6689 0-1.0274.27027-2.0356.7819-2.9166l34.6467-59.66137c1.5591-2.68468 4.9294-3.55522 7.5278-1.94442.3678.22798.7084.49972 1.0149.80966z" fill="url(#e)" fill-rule="evenodd"/></g></g><g clip-rule="evenodd" fill="#000" fill-rule="evenodd"><path d="m100.82 15c-4.408 0-8.062.986-10.962 2.958-3.074 2.088-4.582 4.93-4.582 8.584 0 3.596 1.566 6.38 4.756 8.294 1.276.696 4.408 1.798 9.512 3.422l1.955.6008c3.412 1.0618 5.494 1.7895 6.281 2.1832 2.61 1.334 3.944 3.132 3.944 5.452 0 1.856-.928 3.306-2.784 4.35s-4.35 1.624-7.482 1.624c-3.48 0-6.032-.638-7.714-1.914-1.856-1.392-3.016-3.77-3.48-7.018h-6.264c.348 5.22 2.204 9.048 5.626 11.484 2.842 1.972 6.786 3.016 11.832 3.016 5.22 0 9.28-1.044 12.18-3.132 2.9-2.146 4.35-5.046 4.35-8.758 0-3.828-1.798-6.786-5.336-8.932-1.624-.986-5.278-2.32-10.846-4.06l-1.158-.3506c-3.0812-.9478-5.0466-1.6755-5.9328-2.1462l-.1012-.0552c-2.088-1.102-3.074-2.552-3.074-4.408 0-2.001.799-3.4693 2.4481-4.405l.2199-.119c1.45-.812 3.538-1.218 6.264-1.218 3.132 0 5.452.58 7.076 1.798 1.624 1.16 2.668 3.132 3.248 5.8h6.264c-.406-4.524-2.03-7.83-4.93-9.976-2.726-2.088-6.496-3.074-11.31-3.074zm19.836.812v5.394h13.862v36.018h6.264v-36.018h13.804v-5.394zm42.34 5.394c3.596-4.176 8.584-6.206 14.906-6.206 6.264 0 11.252 2.03 14.906 6.148 3.48 3.886 5.22 9.048 5.22 15.428 0 6.322-1.74 11.426-5.22 15.37-3.654 4.06-8.642 6.09-14.906 6.09-6.322 0-11.31-2.088-14.906-6.148-3.48-3.944-5.162-9.048-5.162-15.312 0-6.322 1.682-11.426 5.162-15.37zm14.906-.638c4.408 0 7.83 1.392 10.208 4.292 2.32 2.842 3.538 6.728 3.538 11.716 0 4.93-1.218 8.816-3.538 11.6-2.378 2.842-5.8 4.292-10.208 4.292s-7.83-1.508-10.266-4.408c-2.32-2.842-3.48-6.67-3.48-11.484 0-4.872 1.16-8.7 3.48-11.542 2.436-3.016 5.858-4.466 10.266-4.466zm29.406.986c3.48-4.408 8.468-6.554 15.08-6.554 4.814 0 8.816 1.218 11.948 3.77 3.016 2.436 4.872 5.8 5.51 9.976h-6.148c-.696-2.784-2.03-4.872-4.002-6.206s-4.408-1.972-7.424-1.972c-4.466 0-7.83 1.508-10.092 4.582l-.218.2917c-1.999 2.7575-2.972 6.4863-2.972 11.1343 0 4.988 1.044 8.816 3.132 11.542 2.204 2.9 5.626 4.35 10.266 4.35 3.016 0 5.568-.754 7.54-2.262 2.088-1.624 3.538-4.06 4.35-7.308h6.148c-.928 4.814-3.074 8.584-6.496 11.31-3.19 2.552-7.018 3.828-11.484 3.828-6.786 0-11.89-2.204-15.312-6.496-3.016-3.712-4.466-8.7-4.466-14.964 0-6.148 1.508-11.136 4.64-15.022zm39.498-5.742v41.412h6.322v-29.58h.232l12.702 19.58h5.452l12.702-19.58h.232v29.58h6.322v-41.412h-7.482l-14.384 23.176h-.174l-14.442-23.176zm77.894 2.262c-2.726-2.088-6.496-3.074-11.31-3.074-4.408 0-8.062.986-10.962 2.958-3.074 2.088-4.582 4.93-4.582 8.584 0 3.596 1.566 6.38 4.756 8.294 1.044.5695 3.33 1.4107 6.923 2.5873l2.589.8347c4.304 1.3076 6.971 2.2058 8.047 2.6945l.189.0895c2.61 1.334 3.944 3.132 3.944 5.452 0 1.856-.928 3.306-2.784 4.35s-4.35 1.624-7.482 1.624c-3.48 0-6.032-.638-7.714-1.914-1.856-1.392-3.016-3.77-3.48-7.018h-6.264c.348 5.22 2.204 9.048 5.626 11.484 2.842 1.972 6.786 3.016 11.832 3.016 5.22 0 9.28-1.044 12.18-3.132 2.9-2.146 4.35-5.046 4.35-8.758 0-3.828-1.798-6.786-5.336-8.932-1.528-.928-4.855-2.1643-9.883-3.7571l-.963-.3029c-3.886-1.16-6.264-2.03-7.192-2.552l-.255-.1396c-1.913-1.0839-2.819-2.4897-2.819-4.2684 0-2.088.87-3.596 2.668-4.524l.248-.1316c1.436-.7243 3.441-1.0864 6.016-1.0864 3.132 0 5.452.58 7.076 1.798 1.624 1.16 2.668 3.132 3.248 5.8h6.264c-.406-4.524-2.03-7.83-4.93-9.976z"/><path d="m84 9.568v-8.568h3.828c.792 0 1.428.192 1.896.576.456.384.684.912.684 1.584 0 .48-.132.9-.384 1.248-.264.312-.612.54-1.044.684.564.096.996.336 1.308.696s.48.816.48 1.392c0 .84-.3 1.464-.888 1.872-.504.336-1.2.516-2.076.516zm3.6-7.74h-2.616v2.916h2.604c.6 0 1.056-.132 1.368-.372.312-.252.48-.624.48-1.116 0-.48-.156-.84-.468-1.08s-.768-.348-1.368-.348zm-2.616 3.732h2.736c.66 0 1.164.12 1.512.384.36.264.552.672.552 1.224s-.216.972-.636 1.236c-.36.216-.828.336-1.428.336h-2.736zm7.44-1.392c.528-.648 1.236-.972 2.136-.972.996 0 1.752.336 2.256 1.008.456.6.696 1.452.72 2.532h-4.896c.048.696.228 1.236.564 1.62s.804.576 1.392.576c.504 0 .924-.132 1.236-.384.264-.216.468-.54.624-.972h.96c-.144.6-.42 1.08-.84 1.464-.516.456-1.176.696-1.98.696-.888 0-1.608-.3-2.136-.876-.552-.6-.816-1.392-.816-2.4 0-.912.252-1.68.78-2.292zm2.16-.168c1.176 0 1.836.66 1.956 1.992h-3.876c.06-.612.252-1.092.588-1.452s.78-.54 1.332-.54zm4.788-2.244.948-.396v2.004h1.536v.804h-1.536v3.948c0 .228.036.396.132.492.084.096.24.156.456.156h.792v.804h-.936c-.504 0-.876-.132-1.092-.396-.204-.24-.3-.588-.3-1.056v-3.948h-1.248v-.804h1.248zm6.252 1.44c-.744 0-1.332.144-1.788.432-.504.312-.828.804-.96 1.452l.948.072c.096-.396.3-.696.624-.888.288-.192.66-.276 1.116-.276 1.08 0 1.62.516 1.62 1.56v.324l-1.488.024c-.936.012-1.656.192-2.16.528-.576.36-.852.888-.852 1.596 0 .504.192.924.576 1.248.372.312.864.468 1.488.468.576 0 1.092-.132 1.548-.384.384-.216.708-.492.948-.828v1.044h.9v-3.984c0-.72-.192-1.284-.552-1.692-.432-.468-1.08-.696-1.968-.696zm1.56 3.924v-.528l-1.428.024c-1.392.024-2.088.48-2.088 1.38 0 .288.108.516.348.708.24.18.552.276.936.276.588 0 1.104-.192 1.56-.576.444-.372.672-.804.672-1.284z"/></g></svg>