<svg fill="none" height="900" viewBox="0 0 1440 900" width="1440" xmlns="http://www.w3.org/2000/svg" xmlns:xlink="http://www.w3.org/1999/xlink"><linearGradient id="a" gradientUnits="userSpaceOnUse" x1="1688.5" x2="-437.5" y1="-263.5" y2="1399"><stop offset="0" stop-color="#45b0d1"/><stop offset=".232525" stop-color="#1760ce"/><stop offset=".608813" stop-color="#5055da"/><stop offset="1" stop-color="#864da9"/></linearGradient><linearGradient id="b" gradientUnits="userSpaceOnUse" x1="526.132" x2="882.91" y1="79.1813" y2="665.013"><stop offset="0"/><stop offset=".2295" stop-color="#050505"/><stop offset=".4926" stop-color="#131313"/><stop offset=".7711" stop-color="#292929"/><stop offset="1" stop-color="#424242"/></linearGradient><linearGradient id="c"><stop offset="0"/><stop offset=".1942" stop-color="#050505"/><stop offset=".4169" stop-color="#131313"/><stop offset=".6536" stop-color="#2a2a2a"/><stop offset=".8985" stop-color="#494949"/><stop offset="1" stop-color="#595959"/></linearGradient><linearGradient id="d" gradientUnits="userSpaceOnUse" x1="222.819" x2="1389.32" xlink:href="#c" y1="1071.31" y2="106.719"/><linearGradient id="e" gradientUnits="userSpaceOnUse" x1="962.861" x2="236.413" xlink:href="#c" y1="438.379" y2="1039.08"/><linearGradient id="f" gradientUnits="userSpaceOnUse" x1="1265.53" x2="766.485" xlink:href="#c" y1="380.976" y2="793.641"/><linearGradient id="g"><stop offset="0" stop-color="#918d60"/><stop offset=".3772" stop-color="#555338"/><stop offset=".799" stop-color="#181710"/><stop offset="1"/></linearGradient><linearGradient id="h" gradientUnits="userSpaceOnUse" x1="944.914" x2="1321.33" xlink:href="#g" y1="162.496" y2="162.496"/><linearGradient id="i" gradientUnits="userSpaceOnUse" x1="477.224" x2="1132.61" xlink:href="#g" y1="664.584" y2="664.584"/><linearGradient id="j" gradientUnits="userSpaceOnUse" x1="328.001" x2="19.9997" xlink:href="#g" y1="870.499" y2="870.499"/><linearGradient id="k" gradientUnits="userSpaceOnUse" x1="1160.02" x2="1258.12" xlink:href="#g" y1="188.482" y2="188.482"/><linearGradient id="l" gradientUnits="userSpaceOnUse" x1="139.794" x2="219.552" xlink:href="#g" y1="806.196" y2="806.196"/><clipPath id="m"><path d="m0 0h1440v900h-1440z"/></clipPath><mask id="n" height="900" maskUnits="userSpaceOnUse" width="1440" x="0" y="0"><path d="m1440 0h-1440v900h1440z" fill="#fff"/></mask><g clip-path="url(#m)"><g mask="url(#n)"><path d="m1440 0h-1440v900h1440z" fill="url(#a)"/><path d="m141.358 246.312c73.754-126.631 179.901-149.9783 308.403-146.8126 109.954 2.7066 228.849 32.0626 330.329-11.2876 101.166-43.2187 171.182-120.8874 280.22-116.4218 146.2 5.9875 209.17 124.8312 200.32 241.497-12.25 161.756-149.28 244.153-285.192 235.419-112.48-7.225-231.569-17.419-332.034 57.543-92.535 69.041-155.455 211.378-283.428 224.369-252.492 25.631-355.03356-250.097-218.618-484.306z" fill="url(#b)"/><path d="m1198.87 152.182c-57.2-58.0968-150.81-58.0968-208.013 0l-856.732 870.118c-57.2031 58.1-57.2031 153.17 0 211.26 57.203 58.1 150.809 58.1 208.012 0l856.733-870.115c57.21-58.097 57.21-153.166 0-211.263z" fill="url(#d)"/><path d="m355.017 1010.77c35.625 36.18 93.917 36.18 129.541 0l533.542-541.873c35.62-36.181 35.62-95.385 0-131.566-35.628-36.181-93.92-36.181-129.548 0l-533.535 541.872c-35.622 36.181-35.622 95.384 0 131.567z" fill="url(#e)"/><path d="m847.966 774.192c24.474 24.853 64.52 24.853 88.991 0l366.523-372.251c24.47-24.856 24.47-65.528 0-90.381-24.47-24.856-64.52-24.856-88.99 0l-366.524 372.25c-24.47 24.853-24.47 65.525 0 90.382z" fill="url(#f)"/><path d="m946.453 353.643c-.39 0-.784-.153-1.089-.456-.6-.61-.6-1.6 0-2.21l373.336-379.1684c.6-.6094 1.57-.6094 2.17 0s.6 1.6 0 2.2094l-373.331 379.166c-.298.306-.689.459-1.086.459z" fill="url(#h)"/><path d="m478.762 997.396c-.394 0-.788-.156-1.089-.456-.6-.609-.6-1.6 0-2.21l652.307-662.5c.6-.609 1.58-.609 2.18 0 .6.61.6 1.6 0 2.21l-652.312 662.5c-.298.3-.692.456-1.086.456z" fill="url(#i)"/><path d="m21.1247 1027c-.2878 0-.5756-.11-.7959-.33-.4384-.45-.4384-1.17 0-1.62l305.7532-310.716c.438-.445 1.151-.445 1.589 0 .439.446.439 1.17 0 1.615l-305.7527 310.721c-.2181.22-.5059.33-.7936.33z" fill="url(#j)"/><path d="m1161.56 238.297c-.04 0-.09 0-.14-.007-.84-.078-1.47-.84-1.39-1.697l2.65-29.5c.07-.75.66-1.346 1.39-1.415l27.76-2.563 2.53-28.2c.07-.75.65-1.347 1.39-1.415l27.75-2.553 2.53-28.197c.06-.75.65-1.347 1.39-1.416l29.03-2.669c.84-.068 1.59.557 1.67 1.416.07.859-.55 1.619-1.4 1.697l-27.74 2.55-2.53 28.197c-.07.75-.66 1.347-1.4 1.415l-27.74 2.553-2.54 28.2c-.06.75-.65 1.347-1.39 1.416l-27.75 2.563-2.54 28.203c-.07.815-.74 1.422-1.53 1.422z" fill="url(#k)"/><path d="m141.335 846.698c-.046 0-.093 0-.142-.007-.846-.078-1.471-.84-1.394-1.7l2.142-23.803c.068-.75.652-1.346 1.394-1.415l22.151-2.044 2.021-22.506c.068-.75.652-1.347 1.394-1.413l22.141-2.034 2.019-22.503c.068-.75.652-1.347 1.394-1.413l23.418-2.156c.846-.066 1.594.559 1.671 1.416.077.859-.548 1.621-1.394 1.696l-22.141 2.038-2.019 22.503c-.068.75-.652 1.347-1.394 1.416l-22.141 2.031-2.022 22.509c-.067.75-.652 1.344-1.394 1.413l-22.15 2.044-2.025 22.506c-.074.812-.742 1.422-1.529 1.422z" fill="url(#l)"/></g></g></svg>