<svg fill="none" height="64" viewBox="0 0 64 64" width="64" xmlns="http://www.w3.org/2000/svg" xmlns:xlink="http://www.w3.org/1999/xlink"><filter id="a" color-interpolation-filters="sRGB" filterUnits="userSpaceOnUse" height="85" width="79" x="-7" y="1"><feFlood flood-opacity="0" result="BackgroundImageFix"/><feColorMatrix in="SourceAlpha" result="hardAlpha" type="matrix" values="0 0 0 0 0 0 0 0 0 0 0 0 0 0 0 0 0 0 127 0"/><feOffset dy="-3"/><feGaussianBlur stdDeviation="1.5"/><feComposite in2="hardAlpha" operator="out"/><feColorMatrix type="matrix" values="0 0 0 0 1 0 0 0 0 1 0 0 0 0 1 0 0 0 0.1 0"/><feBlend in2="BackgroundImageFix" mode="normal" result="effect1_dropShadow_720_48"/><feColorMatrix in="SourceAlpha" result="hardAlpha" type="matrix" values="0 0 0 0 0 0 0 0 0 0 0 0 0 0 0 0 0 0 127 0"/><feOffset dy="4"/><feGaussianBlur stdDeviation="2"/><feComposite in2="hardAlpha" operator="out"/><feColorMatrix type="matrix" values="0 0 0 0 0 0 0 0 0 0 0 0 0 0 0 0 0 0 0.25 0"/><feBlend in2="effect1_dropShadow_720_48" mode="normal" result="effect2_dropShadow_720_48"/><feBlend in="SourceGraphic" in2="effect2_dropShadow_720_48" mode="normal" result="shape"/></filter><linearGradient id="b"><stop offset="0" stop-color="#1d4ed8"/><stop offset="1" stop-color="#1e40af"/></linearGradient><linearGradient id="c" gradientUnits="userSpaceOnUse" x1="53.5" x2="6.43755" xlink:href="#b" y1="-2.06452" y2="63.9555"/><linearGradient id="d" gradientUnits="userSpaceOnUse" x1="53.5" x2="6.43755" y1="-2.06452" y2="63.9555"><stop offset="0" stop-color="#1dd8cd"/><stop offset="1" stop-color="#1e41b4"/></linearGradient><linearGradient id="e" gradientUnits="userSpaceOnUse" x1="56.3516" x2="4.14166" xlink:href="#b" y1="4.70967" y2="77.9506"/><mask id="f" height="64" maskUnits="userSpaceOnUse" width="64" x="0" y="0"><path clip-rule="evenodd" d="m39.6361 1.45881 22.8775 23.13399c1.0755 1.0876 1.6133 2.622 1.461 4.1689l-3.0164 30.6453c-.2567 2.6085-2.3826 4.593-4.9204 4.593h-51.09198c-2.7315 0-4.94582-2.2878-4.94582-5.11 0-.9261.24362-1.8349.704814-2.6291l31.230886-53.77921c1.4053-2.4199862 4.4433-3.204702 6.7856-1.752708.3315.2055.6385.450448.9148.729828z" fill="url(#c)" fill-rule="evenodd"/></mask><g mask="url(#f)"><path clip-rule="evenodd" d="m39.6361 1.45881 22.8775 23.13399c1.0755 1.0876 1.6133 2.622 1.461 4.1689l-3.0164 30.6453c-.2567 2.6085-2.3826 4.593-4.9204 4.593h-51.09198c-2.7315 0-4.94582-2.2878-4.94582-5.11 0-.9261.24362-1.8349.704814-2.6291l31.230886-53.77921c1.4053-2.4199863 4.4433-3.204702 6.7856-1.752708.3315.2055.6385.450448.9148.729828z" fill="url(#d)" fill-rule="evenodd"/><g filter="url(#a)"><path clip-rule="evenodd" d="m40.9713 8.61837 25.3797 25.66423c1.1932 1.2066 1.7897 2.9088 1.6208 4.6249l-3.3462 33.9971c-.2849 2.8939-2.6433 5.0954-5.4587 5.0954h-56.68014c-3.030251 0-5.48676-2.538-5.48676-5.6689 0-1.0274.27027-2.0356.7819-2.9166l34.6467-59.66137c1.5591-2.68468 4.9294-3.55522 7.5278-1.94442.3678.22798.7084.49972 1.0149.80966z" fill="url(#e)" fill-rule="evenodd"/></g></g></svg>